<?xml version="1.0" encoding="utf-8"?>
<!-- Generator: Adobe Illustrator 16.0.0, SVG Export Plug-In . SVG Version: 6.00 Build 0)  -->
<!DOCTYPE svg PUBLIC "-//W3C//DTD SVG 1.1//EN" "http://www.w3.org/Graphics/SVG/1.1/DTD/svg11.dtd">
<svg version="1.1" id="Capa_1" xmlns="http://www.w3.org/2000/svg" xmlns:xlink="http://www.w3.org/1999/xlink" x="0px" y="0px"
	 width="1024px" height="600px" viewBox="0 0 1024 600" style="enable-background:new 0 0 1024 600;" xml:space="preserve">
<style type="text/css">
<![CDATA[
	.st0{fill:#1BDBE6;}
	.st1{fill:#1CE5F0;}
	.st2{fill:#FCEE21;}
	.st3{fill:#FF5283;}
	.st4{fill:#FFE863;}
	.st5{fill:#FFFFFF;}
	.st6{fill:#CEEAF7;}
	.st7{fill:#000D20;}
	.st8{opacity:0.4;fill:#FFFFFF;}
	.st9{fill:#DE4772;}
]]>
</style>
<polygon id="luz" class="st2" points="535.505,257.643 396.425,590.935 666.614,590.998 "/>
<g id="ufo_x5F_celeste2">
	<path class="st1" d="M615.802,133.572c0,6.572-5.328,11.898-11.901,11.898H461.939c-6.572,0-11.899-5.327-11.899-11.898l0,0
		c0-6.571,5.327-11.898,11.899-11.898H603.9C610.474,121.673,615.802,127,615.802,133.572L615.802,133.572z"/>
	<g>
		<path class="st6" d="M590.58,111.51c1.612-5.432,2.491-11.18,2.491-17.135c0-33.221-26.929-60.152-60.151-60.152
			c-33.221,0-60.15,26.931-60.15,60.152c0,5.955,0.878,11.704,2.49,17.135H590.58z"/>
		<path class="st8" d="M474.206,81.318c1.391,0.096,2.791,0.163,4.206,0.163c28.735,0,52.748-20.154,58.712-47.095
			c-1.387-0.097-2.787-0.163-4.203-0.163C504.186,34.223,480.173,54.378,474.206,81.318z"/>
		<circle class="st5" cx="511.296" cy="63.665" r="10.75"/>
		<path class="st9" d="M599.27,93.538c0,1.752-1.421,3.173-3.174,3.173H469.748c-1.753,0-3.174-1.421-3.174-3.173l0,0
			c0-1.753,1.42-3.173,3.174-3.173h126.348C597.849,90.364,599.27,91.785,599.27,93.538L599.27,93.538z"/>
		<path class="st9" d="M599.27,118.5c0,1.752-1.421,3.173-3.174,3.173H469.748c-1.753,0-3.174-1.421-3.174-3.173l0,0
			c0-1.753,1.42-3.173,3.174-3.173h126.348C597.849,115.327,599.27,116.747,599.27,118.5L599.27,118.5z"/>
		<g>
			<rect x="469.6" y="96.711" class="st3" width="126.64" height="18.616"/>
			<g>
				<g>
					<circle class="st9" cx="480.029" cy="106.019" r="6.944"/>
					<g>
						<g>
							<circle class="st4" cx="480.028" cy="106.019" r="5.492"/>
							<circle class="st5" cx="478.411" cy="104.73" r="2.523"/>
						</g>
					</g>
				</g>
				<g>
					<circle class="st9" cx="501.185" cy="106.019" r="6.945"/>
					<g>
						<g>
							<circle class="st4" cx="501.185" cy="106.019" r="5.491"/>
							<circle class="st5" cx="499.567" cy="104.73" r="2.523"/>
						</g>
					</g>
				</g>
				<g>
					<circle class="st9" cx="522.343" cy="106.019" r="6.944"/>
					<g>
						<g>
							<circle class="st4" cx="522.342" cy="106.019" r="5.492"/>
							<circle class="st5" cx="520.725" cy="104.73" r="2.523"/>
						</g>
					</g>
				</g>
				<g>
					<circle class="st9" cx="543.499" cy="106.019" r="6.944"/>
					<g>
						<g>
							<circle class="st4" cx="543.5" cy="106.019" r="5.491"/>
							<path class="st5" d="M544.406,104.73c0,1.394-1.134,2.523-2.524,2.523c-1.394,0-2.522-1.129-2.522-2.523
								s1.129-2.522,2.522-2.522C543.272,102.208,544.406,103.337,544.406,104.73z"/>
						</g>
					</g>
				</g>
				<g>
					<circle class="st9" cx="564.656" cy="106.019" r="6.945"/>
					<g>
						<g>
							<path class="st4" d="M570.15,106.019c0,3.032-2.461,5.491-5.492,5.491c-3.036,0-5.492-2.459-5.492-5.491
								c0-3.033,2.456-5.492,5.492-5.492C567.689,100.527,570.15,102.986,570.15,106.019z"/>
							<circle class="st5" cx="563.039" cy="104.73" r="2.523"/>
						</g>
					</g>
				</g>
				<g>
					<circle class="st9" cx="585.812" cy="106.019" r="6.945"/>
					<g>
						<g>
							<path class="st4" d="M591.307,106.019c0,3.032-2.461,5.491-5.492,5.491c-3.036,0-5.492-2.459-5.492-5.491
								c0-3.033,2.456-5.492,5.492-5.492C588.846,100.527,591.307,102.986,591.307,106.019z"/>
							<circle class="st5" cx="584.195" cy="104.73" r="2.523"/>
						</g>
					</g>
				</g>
			</g>
		</g>
	</g>
	<ellipse class="st4" cx="532.92" cy="273.917" rx="49.557" ry="19.138"/>
	<path class="st9" d="M589.762,266.356c0,2.948-2.393,5.338-5.338,5.338H481.419c-2.948,0-5.338-2.391-5.338-5.338l0,0
		c0-2.948,2.39-5.337,5.338-5.337h103.005C587.369,261.019,589.762,263.408,589.762,266.356L589.762,266.356z"/>
	<path class="st3" d="M600.84,259.978c0,3.523-2.856,6.378-6.378,6.378H471.379c-3.522,0-6.378-2.854-6.378-6.378l0,0
		c0-3.523,2.856-6.378,6.378-6.378h123.083C597.983,253.6,600.84,256.455,600.84,259.978L600.84,259.978z"/>
	<g>
		<g>
			
				<ellipse transform="matrix(0.9336 0.3584 -0.3584 0.9336 117.5045 -132.4135)" class="st4" cx="415.934" cy="250.758" rx="26.333" ry="10.169"/>
			<path class="st9" d="M445.57,257.833c-0.563,1.462-2.202,2.193-3.665,1.63l-51.098-19.616c-1.461-0.562-2.192-2.202-1.631-3.664
				l0,0c0.563-1.461,2.202-2.192,3.666-1.632l51.097,19.616C445.4,254.73,446.131,256.37,445.57,257.833L445.57,257.833z"/>
			<path class="st3" d="M453.526,254.981c-0.671,1.748-2.632,2.621-4.379,1.95L388.09,233.49c-1.748-0.671-2.621-2.632-1.95-4.377
				l0,0c0.671-1.748,2.632-2.621,4.378-1.95l61.058,23.439C453.324,251.272,454.197,253.233,453.526,254.981L453.526,254.981z"/>
		</g>
		<g>
			
				<ellipse transform="matrix(-0.9336 0.3584 -0.3584 -0.9336 1346.5145 251.9328)" class="st4" cx="649.909" cy="250.758" rx="26.334" ry="10.169"/>
			<path class="st9" d="M620.272,257.833c0.561,1.462,2.202,2.193,3.663,1.63l51.099-19.616c1.464-0.562,2.192-2.202,1.63-3.664l0,0
				c-0.561-1.461-2.201-2.192-3.663-1.632l-51.099,19.616C620.44,254.73,619.708,256.37,620.272,257.833L620.272,257.833z"/>
			<path class="st3" d="M612.317,254.981c0.669,1.748,2.632,2.621,4.377,1.95l61.06-23.441c1.745-0.671,2.62-2.632,1.946-4.377l0,0
				c-0.669-1.748-2.631-2.621-4.376-1.95l-61.06,23.439C612.52,251.272,611.645,253.233,612.317,254.981L612.317,254.981z"/>
		</g>
	</g>
	<path class="st1" d="M432.686,149.822c38.856,0,74.038,0,92.943,0c0,0,5.352,0,14.582,0c18.906,0,54.09,0,92.945,0
		c57.831,0,98.107,39.366,98.107,39.366H540.211h-14.582H334.58C334.58,189.188,374.854,149.822,432.686,149.822z"/>
	<path class="st0" d="M462.831,149.822c27.17,0,51.771,0,64.991,0c0,0,3.74,0,10.197,0c13.221,0,37.82,0,64.992,0
		c40.437,0,68.599,39.366,68.599,39.366H538.02h-10.197H394.23C394.23,189.188,422.393,149.822,462.831,149.822z"/>
	<path class="st1" d="M503.514,149.82c11.398,0,21.72,0,27.267,0c0,0,1.571,0,4.277,0c5.549,0,15.871,0,27.27,0
		c16.967,0,28.783,39.367,28.783,39.367h-56.053h-4.277h-56.05C474.731,189.188,486.547,149.82,503.514,149.82z"/>
	<polygon class="st1" points="533.482,205.55 532.359,205.55 330.28,205.55 465.306,257.387 532.359,257.387 533.482,257.387 
		600.536,257.387 735.563,205.55 	"/>
	<polygon class="st0" points="533.271,205.55 532.568,205.55 406.227,205.55 490.647,257.387 532.568,257.387 533.271,257.387 
		575.193,257.387 659.614,205.55 	"/>
	<polygon class="st1" points="533.071,205.55 532.771,205.55 478.449,205.55 514.746,257.387 532.771,257.387 533.071,257.387 
		551.098,257.387 587.393,205.55 	"/>
	<path class="st3" d="M753.04,196.859c0,4.798-3.887,8.69-8.688,8.69H321.49c-4.8,0-8.69-3.892-8.69-8.69l0,0
		c0-4.801,3.89-8.692,8.69-8.692h422.861C749.153,188.167,753.04,192.059,753.04,196.859L753.04,196.859z"/>
	<g>
		<g>
			<g>
				<circle class="st4" cx="326.461" cy="196.859" r="4.89"/>
				<circle class="st5" cx="325.021" cy="195.711" r="2.246"/>
			</g>
		</g>
		<g>
			<g>
				<circle class="st4" cx="360.871" cy="196.859" r="4.89"/>
				<circle class="st5" cx="359.431" cy="195.711" r="2.246"/>
			</g>
		</g>
		<g>
			<g>
				<circle class="st4" cx="395.281" cy="196.859" r="4.89"/>
				<circle class="st5" cx="393.84" cy="195.711" r="2.246"/>
			</g>
		</g>
		<g>
			<g>
				<circle class="st4" cx="429.69" cy="196.859" r="4.89"/>
				<circle class="st5" cx="428.25" cy="195.711" r="2.246"/>
			</g>
		</g>
		<g>
			<g>
				<circle class="st4" cx="464.1" cy="196.859" r="4.89"/>
				<circle class="st5" cx="462.66" cy="195.711" r="2.246"/>
			</g>
		</g>
		<g>
			<g>
				<circle class="st4" cx="498.51" cy="196.859" r="4.89"/>
				<circle class="st5" cx="497.07" cy="195.711" r="2.245"/>
			</g>
		</g>
		<g>
			<g>
				<circle class="st4" cx="532.92" cy="196.859" r="4.89"/>
				<circle class="st5" cx="531.479" cy="195.711" r="2.245"/>
			</g>
		</g>
		<g>
			<g>
				<circle class="st4" cx="567.331" cy="196.859" r="4.89"/>
				<circle class="st5" cx="565.891" cy="195.711" r="2.247"/>
			</g>
		</g>
		<g>
			<g>
				<circle class="st4" cx="601.741" cy="196.859" r="4.89"/>
				<circle class="st5" cx="600.301" cy="195.711" r="2.247"/>
			</g>
		</g>
		<g>
			<g>
				<circle class="st4" cx="636.151" cy="196.859" r="4.89"/>
				<circle class="st5" cx="634.71" cy="195.711" r="2.247"/>
			</g>
		</g>
		<g>
			<g>
				<circle class="st4" cx="670.561" cy="196.859" r="4.89"/>
				<circle class="st5" cx="669.121" cy="195.711" r="2.247"/>
			</g>
		</g>
		<g>
			<g>
				<circle class="st4" cx="704.97" cy="196.859" r="4.89"/>
				<circle class="st5" cx="703.53" cy="195.711" r="2.247"/>
			</g>
		</g>
		<g>
			<g>
				<circle class="st4" cx="739.38" cy="196.859" r="4.89"/>
				<circle class="st5" cx="737.94" cy="195.711" r="2.247"/>
			</g>
		</g>
	</g>
	<polygon class="st3" points="615.802,133.535 532.92,133.535 450.04,133.535 428.501,149.82 532.92,149.82 637.34,149.82 	"/>
	<polygon class="st9" points="590.535,133.535 532.92,133.535 475.305,133.535 460.332,149.82 532.92,149.82 605.509,149.82 	"/>
	<polygon class="st3" points="564.609,133.535 532.92,133.535 501.232,133.535 492.996,149.82 532.92,149.82 572.846,149.82 	"/>
</g>
<path id="cerdito" class="st7" d="M494.599,544.797c0,0-2.002,4.979-0.969,10.393c0.815,4.276,2.431,8.045,3.746,8.67
	c0.975,0.464,1.259,1.495,0.774,1.979c-0.485,0.486-0.483,1.329,0.002,2.543c0.485,1.213-0.28,6.064,0.771,7.521
	s3.236,6.065,3.236,6.065l3.154-0.607c0,0-3.032-5.46-3.276-6.552c-0.242-1.093,0.722-5.622,0.722-5.622s2.19,4.003,2.555,5.702
	c0.363,1.7,1.941,7.239,1.941,7.239h5.145l-2.111-4.286c0,0-1.82-4.854-1.335-5.582c0.486-0.728,5.096-5.703,4.975-7.645
	c0,0,8.276,5.514,17.255,3.937c8.979-1.577,10.531-2.965,10.531-2.965s0.85,4.004,1.334,5.218
	c0.485,1.214-1.698,10.147-0.849,11.322c0.849,1.174,3.073,0.688,4.084,0.445c1.012-0.241,0.688-1.212,0-2.183
	c-0.687-0.972,1.094-5.782,1.436-5.116c0.5,0.971,0.39,3.485,0.874,4.334c0.486,0.851,2.073,2.699,4.162,2.724
	c1.098,0.012,2.063-0.122,1.941-0.608c-0.121-0.484-2.792-2.426-3.52-4.124s-2.305-8.25-1.455-8.979
	c0.849-0.729,1.819-1.94,2.911-0.363c1.092,1.578,6.067,7.28,20.264,3.52c0,0-0.114-0.915-1.148-1.474
	c-1.034-0.56-0.559-0.811-0.225-0.643c0.336,0.167,1.874,1.341,2.712,1.257c0.839-0.083,3.188-3.521,3.188-4.221
	c0-0.698-1.426-1.51-3.02-2.516c-1.592-1.007-4.389-3.746-4.332-4.36c0.055-0.616,0.167-1.202,1.564-1.37
	c1.398-0.168,4.166,0.335,5.004-1.26c0.839-1.592,1.678-2.99,2.041-3.604c0,0-5.228-0.447-7.297-0.056c0,0,0.336,0.083-0.895-1.762
	c-1.229-1.846-7.093-12.077-17.834-15.375c-6.627-2.034-21.851-3.701-29.604-3.426c-7.497,0.266-11.416,0.86-16.915,2.811
	c-3.487,1.236-10.315,6.766-11.182,6.877c-0.866,0.111-2.068-2.125-3.69-2.516c-1.621-0.392-3.075-0.839-3.689,1.425
	c-0.615,2.265-0.643,3.634,0.586,7.018c1.23,3.382,1.23,3.382,1.23,3.382s2.684-2.319,2.376-3.438
	c-0.308-1.118-1.37-1.594-1.203-3.02s-0.308-3.41,0.839-2.683C492.551,543.549,493.291,545.655,494.599,544.797z"/>
</svg>
