<svg id="Capa_1" xmlns="http://www.w3.org/2000/svg" width="1024" height="600">
  <style>
    .st0{fill:#1bdbe6}.st1{fill:#1ce5f0}.st3{fill:#ff5283}.st4{fill:#ffe863}.st5{fill:#fff}.st9{fill:#de4772}
  </style>
  <path id="luz" fill="#fcee21" d="M535.505 257.643l-139.08 333.292 270.189.063z"/>
  <g id="ufo">
    <path class="st1" d="M615.802 133.572c0 6.572-5.328 11.898-11.901 11.898H461.939c-6.572 0-11.899-5.327-11.899-11.898s5.327-11.898 11.899-11.898H603.9c6.574-.001 11.902 5.326 11.902 11.898z"/>
    <path d="M590.58 111.51a60.13 60.13 0 0 0 2.491-17.135c0-33.221-26.929-60.152-60.151-60.152-33.221 0-60.15 26.931-60.15 60.152 0 5.955.878 11.704 2.49 17.135h115.32z" fill="#ceeaf7"/>
    <path d="M474.206 81.318a60.99 60.99 0 0 0 4.206.163c28.735 0 52.748-20.154 58.712-47.095a60.162 60.162 0 0 0-4.203-.163c-28.735 0-52.748 20.155-58.715 47.095z" opacity=".4" fill="#fff"/>
    <circle class="st5" cx="511.296" cy="63.665" r="10.75"/>
    <path class="st9" d="M599.27 93.538a3.174 3.174 0 0 1-3.174 3.173H469.748a3.172 3.172 0 1 1 0-6.346h126.348a3.172 3.172 0 0 1 3.174 3.173zM599.27 118.5a3.174 3.174 0 0 1-3.174 3.173H469.748a3.172 3.172 0 1 1 0-6.346h126.348a3.173 3.173 0 0 1 3.174 3.173z"/>
    <path class="st3" d="M469.6 96.711h126.64v18.616H469.6z"/>
    <circle class="st9" cx="480.029" cy="106.019" r="6.944"/>
    <circle class="st4" cx="480.028" cy="106.019" r="5.492"/>
    <circle class="st5" cx="478.411" cy="104.73" r="2.523"/>
    <circle class="st9" cx="501.185" cy="106.019" r="6.945"/>
    <circle class="st4" cx="501.185" cy="106.019" r="5.491"/>
    <circle class="st5" cx="499.567" cy="104.73" r="2.523"/>
    <circle class="st9" cx="522.343" cy="106.019" r="6.944"/>
    <circle class="st4" cx="522.342" cy="106.019" r="5.492"/>
    <circle class="st5" cx="520.725" cy="104.73" r="2.523"/>
    <circle class="st9" cx="543.499" cy="106.019" r="6.944"/>
    <circle class="st4" cx="543.5" cy="106.019" r="5.491"/>
    <path class="st5" d="M544.406 104.73a2.526 2.526 0 0 1-2.524 2.523c-1.394 0-2.522-1.129-2.522-2.523s1.129-2.522 2.522-2.522a2.525 2.525 0 0 1 2.524 2.522z"/>
    <g>
      <circle class="st9" cx="564.656" cy="106.019" r="6.945"/>
      <path class="st4" d="M570.15 106.019a5.493 5.493 0 0 1-5.492 5.491 5.49 5.49 0 0 1-5.492-5.491 5.49 5.49 0 0 1 5.492-5.492 5.493 5.493 0 0 1 5.492 5.492z"/>
      <circle class="st5" cx="563.039" cy="104.73" r="2.523"/>
    </g>
    <g>
      <circle class="st9" cx="585.812" cy="106.019" r="6.945"/>
      <path class="st4" d="M591.307 106.019a5.493 5.493 0 0 1-5.492 5.491 5.49 5.49 0 0 1-5.492-5.491 5.49 5.49 0 0 1 5.492-5.492 5.493 5.493 0 0 1 5.492 5.492z"/>
      <circle class="st5" cx="584.195" cy="104.73" r="2.523"/>
    </g>
    <ellipse class="st4" cx="532.92" cy="273.917" rx="49.557" ry="19.138"/>
    <path class="st9" d="M589.762 266.356a5.34 5.34 0 0 1-5.338 5.338H481.419a5.337 5.337 0 1 1 0-10.675h103.005a5.34 5.34 0 0 1 5.338 5.337z"/>
    <path class="st3" d="M600.84 259.978a6.378 6.378 0 0 1-6.378 6.378H471.379a6.378 6.378 0 1 1 0-12.756h123.083a6.379 6.379 0 0 1 6.378 6.378z"/>
    <g>
      <ellipse transform="rotate(21.001 415.937 250.764)" class="st4" cx="415.934" cy="250.758" rx="26.333" ry="10.169"/>
      <path class="st9" d="M445.57 257.833a2.836 2.836 0 0 1-3.665 1.63l-51.098-19.616a2.838 2.838 0 0 1-1.631-3.664 2.84 2.84 0 0 1 3.666-1.632l51.097 19.616a2.84 2.84 0 0 1 1.631 3.666z"/>
      <path class="st3" d="M453.526 254.981a3.39 3.39 0 0 1-4.379 1.95L388.09 233.49a3.389 3.389 0 0 1 2.428-6.327l61.058 23.439a3.389 3.389 0 0 1 1.95 4.379z"/>
      <g>
        <ellipse transform="scale(-1) rotate(-21.001 -1352.827 3506.268)" class="st4" cx="649.909" cy="250.758" rx="26.334" ry="10.169"/>
        <path class="st9" d="M620.272 257.833a2.833 2.833 0 0 0 3.663 1.63l51.099-19.616a2.837 2.837 0 0 0-2.033-5.296l-51.099 19.616a2.836 2.836 0 0 0-1.63 3.666z"/>
        <path class="st3" d="M612.317 254.981a3.387 3.387 0 0 0 4.377 1.95l61.06-23.441a3.386 3.386 0 0 0 1.946-4.377 3.386 3.386 0 0 0-4.376-1.95l-61.06 23.439a3.39 3.39 0 0 0-1.947 4.379z"/>
      </g>
    </g>
    <path class="st1" d="M432.686 149.822h200.47c57.831 0 98.107 39.366 98.107 39.366H334.58s40.274-39.366 98.106-39.366z"/>
    <path class="st0" d="M462.831 149.822h140.18c40.437 0 68.599 39.366 68.599 39.366H394.23s28.163-39.366 68.601-39.366z"/>
    <path class="st1" d="M503.514 149.82h58.814c16.967 0 28.783 39.367 28.783 39.367h-116.38c0 .001 11.816-39.367 28.783-39.367zM533.482 205.55H330.28l135.026 51.837H600.536l135.027-51.837z"/>
    <path class="st0" d="M533.271 205.55H406.227l84.42 51.837H575.193l84.421-51.837z"/>
    <path class="st1" d="M533.071 205.55h-54.622l36.297 51.837H551.098l36.295-51.837z"/>
    <path class="st3" d="M753.04 196.859a8.688 8.688 0 0 1-8.688 8.69H321.49a8.69 8.69 0 0 1-8.69-8.69 8.69 8.69 0 0 1 8.69-8.692h422.861a8.689 8.689 0 0 1 8.689 8.692z"/>
    <g>
      <circle class="st4" cx="326.461" cy="196.859" r="4.89"/>
      <circle class="st5" cx="325.021" cy="195.711" r="2.246"/>
      <circle class="st4" cx="360.871" cy="196.859" r="4.89"/>
      <circle class="st5" cx="359.431" cy="195.711" r="2.246"/>
      <circle class="st4" cx="395.281" cy="196.859" r="4.89"/>
      <circle class="st5" cx="393.84" cy="195.711" r="2.246"/>
      <circle class="st4" cx="429.69" cy="196.859" r="4.89"/>
      <circle class="st5" cx="428.25" cy="195.711" r="2.246"/>
      <circle class="st4" cx="464.1" cy="196.859" r="4.89"/>
      <circle class="st5" cx="462.66" cy="195.711" r="2.246"/>
      <circle class="st4" cx="498.51" cy="196.859" r="4.89"/>
      <circle class="st5" cx="497.07" cy="195.711" r="2.245"/>
      <circle class="st4" cx="532.92" cy="196.859" r="4.89"/>
      <circle class="st5" cx="531.479" cy="195.711" r="2.245"/>
      <g>
        <circle class="st4" cx="567.331" cy="196.859" r="4.89"/>
        <circle class="st5" cx="565.891" cy="195.711" r="2.247"/>
      </g>
      <g>
        <circle class="st4" cx="601.741" cy="196.859" r="4.89"/>
        <circle class="st5" cx="600.301" cy="195.711" r="2.247"/>
      </g>
      <g>
        <circle class="st4" cx="636.151" cy="196.859" r="4.89"/>
        <circle class="st5" cx="634.71" cy="195.711" r="2.247"/>
      </g>
      <g>
        <circle class="st4" cx="670.561" cy="196.859" r="4.89"/>
        <circle class="st5" cx="669.121" cy="195.711" r="2.247"/>
      </g>
      <g>
        <circle class="st4" cx="704.97" cy="196.859" r="4.89"/>
        <circle class="st5" cx="703.53" cy="195.711" r="2.247"/>
      </g>
      <g>
        <circle class="st4" cx="739.38" cy="196.859" r="4.89"/>
        <circle class="st5" cx="737.94" cy="195.711" r="2.247"/>
      </g>
    </g>
    <path class="st3" d="M615.802 133.535H450.04l-21.539 16.285H637.34z"/>
    <path class="st9" d="M590.535 133.535h-115.23l-14.973 16.285h145.177z"/>
    <path class="st3" d="M564.609 133.535H501.232l-8.236 16.285h79.85z"/>
  </g>
  <path id="cerdito" d="M494.599 544.797s-2.002 4.979-.969 10.393c.815 4.276 2.431 8.045 3.746 8.67.975.464 1.259 1.495.774 1.979-.485.486-.483 1.329.002 2.543.485 1.213-.28 6.064.771 7.521s3.236 6.065 3.236 6.065l3.154-.607s-3.032-5.46-3.276-6.552c-.242-1.093.722-5.622.722-5.622s2.19 4.003 2.555 5.702c.363 1.7 1.941 7.239 1.941 7.239h5.145l-2.111-4.286s-1.82-4.854-1.335-5.582c.486-.728 5.096-5.703 4.975-7.645 0 0 8.276 5.514 17.255 3.937 8.979-1.577 10.531-2.965 10.531-2.965s.85 4.004 1.334 5.218c.485 1.214-1.698 10.147-.849 11.322.849 1.174 3.073.688 4.084.445 1.012-.241.688-1.212 0-2.183-.687-.972 1.094-5.782 1.436-5.116.5.971.39 3.485.874 4.334.486.851 2.073 2.699 4.162 2.724 1.098.012 2.063-.122 1.941-.608-.121-.484-2.792-2.426-3.52-4.124s-2.305-8.25-1.455-8.979c.849-.729 1.819-1.94 2.911-.363 1.092 1.578 6.067 7.28 20.264 3.52 0 0-.114-.915-1.148-1.474-1.034-.56-.559-.811-.225-.643.336.167 1.874 1.341 2.712 1.257.839-.083 3.188-3.521 3.188-4.221 0-.698-1.426-1.51-3.02-2.516-1.592-1.007-4.389-3.746-4.332-4.36.055-.616.167-1.202 1.564-1.37 1.398-.168 4.166.335 5.004-1.26.839-1.592 1.678-2.99 2.041-3.604 0 0-5.228-.447-7.297-.056 0 0 .336.083-.895-1.762-1.229-1.846-7.093-12.077-17.834-15.375-6.627-2.034-21.851-3.701-29.604-3.426-7.497.266-11.416.86-16.915 2.811-3.487 1.236-10.315 6.766-11.182 6.877-.866.111-2.068-2.125-3.69-2.516-1.621-.392-3.075-.839-3.689 1.425-.615 2.265-.643 3.634.586 7.018l1.23 3.382s2.684-2.319 2.376-3.438c-.308-1.118-1.37-1.594-1.203-3.02s-.308-3.41.839-2.683c1.148.726 1.888 2.832 3.196 1.974z" fill="#000d20"/>
</svg>
